HIERARCHY
ROOT hip
{
  OFFSET 0 0 0
  CHANNELS 6 Xposition Yposition Zposition Zrotation Yrotation Xrotation
  JOINT abdomen
  {
    OFFSET 0 20.6881 -0.73152
    CHANNELS 3 Zrotation Xrotation Yrotation
    JOINT chest
    {
      OFFSET 0 11.7043 -0.48768
      CHANNELS 3 Zrotation Xrotation Yrotation
      JOINT neck
      {
        OFFSET 0 22.1894 -2.19456
        CHANNELS 3 Zrotation Xrotation Yrotation
        JOINT head
        {
          OFFSET -0.24384 7.07133 1.2192
          CHANNELS 3 Zrotation Xrotation Yrotation
          JOINT leftEye
          {
            OFFSET 4.14528 8.04674 8.04672
            CHANNELS 3 Zrotation Xrotation Yrotation
            End Site
            {
              OFFSET 1 0 0
            }
          }
          JOINT rightEye
          {
            OFFSET -3.6576 8.04674 8.04672
            CHANNELS 3 Zrotation Xrotation Yrotation
            End Site
            {
              OFFSET 1 0 0
            }
          }
        }
      }
      JOINT rCollar
      {
        OFFSET -2.68224 19.2634 -4.8768
        CHANNELS 3 Zrotation Xrotation Yrotation
        JOINT rShldr
        {
          OFFSET -8.77824 -1.95073 1.46304
          CHANNELS 3 Zrotation Xrotation Yrotation
          JOINT rForeArm
          {
            OFFSET -28.1742 -1.7115 0.48768
            CHANNELS 3 Zrotation Xrotation Yrotation
            JOINT rHand
            {
              OFFSET -22.5879 0.773209 7.07136
              CHANNELS 3 Zrotation Xrotation Yrotation
              JOINT rThumb1
              {
                OFFSET -1.2192 -0.487915 3.41376
                CHANNELS 3 Zrotation Xrotation Yrotation
                JOINT rThumb2
                {
                  OFFSET -3.37035 -0.52449 3.41376
                  CHANNELS 3 Zrotation Xrotation Yrotation
                  End Site
                  {
                    OFFSET -1.78271 -1.18214 1.43049
                  }
                }
              }
              JOINT rIndex1
              {
                OFFSET -7.75947 0.938293 5.60832
                CHANNELS 3 Zrotation Xrotation Yrotation
                JOINT rIndex2
                {
                  OFFSET -2.54057 -0.884171 1.56538
                  CHANNELS 3 Zrotation Xrotation Yrotation
                  End Site
                  {
                    OFFSET -1.62519 -0.234802 1.16502
                  }
                }
              }
              JOINT rMid1
              {
                OFFSET -8.24714 1.18213 3.41376
                CHANNELS 3 Zrotation Xrotation Yrotation
                JOINT rMid2
                {
                  OFFSET -3.10165 -0.590103 1.0647
                  CHANNELS 3 Zrotation Xrotation Yrotation
                  End Site
                  {
                    OFFSET -2.48547 -0.328903 0.83742
                  }
                }
              }
              JOINT rRing1
              {
                OFFSET -8.82822 0.546677 1.51678
                CHANNELS 3 Zrotation Xrotation Yrotation
                JOINT rRing2
                {
                  OFFSET -2.60934 -0.819778 -0.0198488
                  CHANNELS 3 Zrotation Xrotation Yrotation
                  End Site
                  {
                    OFFSET -2.33842 -0.294052 0.168128
                  }
                }
              }
              JOINT rPinky1
              {
                OFFSET -8.27202 -0.0477905 -0.4584
                CHANNELS 3 Zrotation Xrotation Yrotation
                JOINT rPinky2
                {
                  OFFSET -1.82734 -0.647385 -0.700984
                  CHANNELS 3 Zrotation Xrotation Yrotation
                  End Site
                  {
                    OFFSET -1.69225 -0.51767 -0.607171
                  }
                }
              }
            }
          }
        }
      }
      JOINT lCollar
      {
        OFFSET 2.68224 19.2634 -4.8768
        CHANNELS 3 Zrotation Xrotation Yrotation
        JOINT lShldr
        {
          OFFSET 8.77824 -1.95073 1.46304
          CHANNELS 3 Zrotation Xrotation Yrotation
          JOINT lForeArm
          {
            OFFSET 28.1742 -1.7115 0.48768
            CHANNELS 3 Zrotation Xrotation Yrotation
            JOINT lHand
            {
              OFFSET 22.5879 0.773209 7.07136
              CHANNELS 3 Zrotation Xrotation Yrotation
              JOINT lThumb1
              {
                OFFSET 1.2192 -0.487915 3.41376
                CHANNELS 3 Zrotation Xrotation Yrotation
                JOINT lThumb2
                {
                  OFFSET 3.37035 -0.52449 3.41376
                  CHANNELS 3 Zrotation Xrotation Yrotation
                  End Site
                  {
                    OFFSET 1.78271 -1.18214 1.43049
                  }
                }
              }
              JOINT lIndex1
              {
                OFFSET 7.75947 0.938293 5.60832
                CHANNELS 3 Zrotation Xrotation Yrotation
                JOINT lIndex2
                {
                  OFFSET 2.54057 -0.884171 1.56538
                  CHANNELS 3 Zrotation Xrotation Yrotation
                  End Site
                  {
                    OFFSET 1.62519 -0.234802 1.16502
                  }
                }
              }
              JOINT lMid1
              {
                OFFSET 8.24714 1.18213 3.41376
                CHANNELS 3 Zrotation Xrotation Yrotation
                JOINT lMid2
                {
                  OFFSET 3.10165 -0.590103 1.0647
                  CHANNELS 3 Zrotation Xrotation Yrotation
                  End Site
                  {
                    OFFSET 2.48547 -0.328903 0.83742
                  }
                }
              }
              JOINT lRing1
              {
                OFFSET 8.82822 0.546677 1.51678
                CHANNELS 3 Zrotation Xrotation Yrotation
                JOINT lRing2
                {
                  OFFSET 2.60934 -0.819778 -0.0198488
                  CHANNELS 3 Zrotation Xrotation Yrotation
                  End Site
                  {
                    OFFSET 2.33842 -0.294052 0.168128
                  }
                }
              }
              JOINT lPinky1
              {
                OFFSET 8.27202 -0.0477905 -0.4584
                CHANNELS 3 Zrotation Xrotation Yrotation
                JOINT lPinky2
                {
                  OFFSET 1.82734 -0.647385 -0.700984
                  CHANNELS 3 Zrotation Xrotation Yrotation
                  End Site
                  {
                    OFFSET 1.69225 -0.51767 -0.607171
                  }
                }
              }
            }
          }
        }
      }
    }
  }
  JOINT rButtock
  {
    OFFSET -8.77824 4.35084 1.2192
    CHANNELS 3 Zrotation Xrotation Yrotation
    JOINT rThigh
    {
      OFFSET 0 -1.70687 -2.19456
      CHANNELS 3 Zrotation Xrotation Yrotation
      JOINT rShin
      {
        OFFSET 0 -36.8199 0.73152
        CHANNELS 3 Zrotation Xrotation Yrotation
        JOINT rFoot
        {
          OFFSET 0.73152 -45.1104 -5.12064
          CHANNELS 3 Zrotation Xrotation Yrotation
          End Site
          {
            OFFSET -1.1221 -3.69964 12.103
          }
        }
      }
    }
  }
  JOINT lButtock
  {
    OFFSET 8.77824 4.35084 1.2192
    CHANNELS 3 Zrotation Xrotation Yrotation
    JOINT lThigh
    {
      OFFSET 0 -1.70687 -2.19456
      CHANNELS 3 Zrotation Xrotation Yrotation
      JOINT lShin
      {
        OFFSET 0 -36.8199 0.73152
        CHANNELS 3 Zrotation Xrotation Yrotation
        JOINT lFoot
        {
          OFFSET -0.73152 -45.1104 -5.12064
          CHANNELS 3 Zrotation Xrotation Yrotation
          End Site
          {
            OFFSET 1.1221 -3.69964 12.103
          }
        }
      }
    }
  }
}
MOTION
Frames:	7
Frame Time:	0.00833333
-68.7779 83.9933 -21.7708 0.0 0.0 0.0 -1.70622 -0.00254499 -0.0464502 -0.470561 0.00242736 -0.0814849 -5.99877e-14 7.95139e-16 3.1904e-22 -1.79453e-13 3.18055e-15 1.21134e-16 -0.0 0.0 0.0 -0.0 0.0 0.0 -2.98201e-14 -2.32951e-17 9.93923e-17 -6.25986e-13 -2.36057e-16 -3.97569e-16 -1.07962e-11 3.22429e-12 7.95139e-14 -1.2376e-10 -3.32475e-12 -7.95139e-14 -2.91896e-10 -2.21325e-13 2.8625e-14 -5.041e-10 -3.78486e-13 5.48646e-14 -2.91891e-10 -2.21446e-13 1.27222e-14 7.73091 5.47488 0.417314 -2.91898e-10 -2.22042e-13 2.8625e-14 2.90554 0.965183 0.102902 -2.91887e-10 -2.20949e-13 2.78299e-14 10.2786 0.731801 0.0259123 -2.91902e-10 -2.19856e-13 3.81667e-14 2.22167 -0.733487 -0.20892 -2.99166e-14 -2.21303e-17 -9.93923e-17 -6.29514e-13 -1.36664e-16 -2.5842e-15 -1.08279e-11 -3.24357e-12 1.08139e-13 -1.23715e-10 3.1561e-12 -1.11319e-13 -2.91863e-10 -1.94261e-13 2.8625e-14 -5.04024e-10 -3.435e-13 6.59965e-14 -2.91867e-10 -1.96002e-13 4.13472e-14 -7.73091 5.47488 -0.417314 -2.91863e-10 -1.94411e-13 2.54444e-14 -2.90554 0.965183 -0.102902 -2.91864e-10 -1.94511e-13 3.10104e-14 -10.2786 0.731801 -0.0259123 -2.91859e-10 -1.94411e-13 1.90833e-14 -2.22167 -0.733487 0.20892 -2.03217e-16 0.0 -3.88251e-19 -0.810624 -1.92439 -0.00361284 -0.00901523 -2.07859 -0.0743111 -0.483845 3.99775 0.136135 2.03217e-16 0.0 3.88251e-19 -1.78651 -6.85421 0.170481 -0.00323795 6.85138 -0.0863845 0.513061 -0.00231148 -0.0581962
-65.8613 82.3701 -24.8233 4.2283 48.117 9.2081 -3.25277 0.970404 0.0251075 0.72177 -0.187101 -0.0475875 -2.29203 0.106439 0.520654 0.13998 6.33669 1.99591 -0.0 0.0 0.0 -0.0 0.0 0.0 6.79072e-15 -9.94244e-14 -8.36604e-15 21.2301 5.62122 0.457614 -5.06143 -2.49649 7.68031 0.0613779 5.50077 0.760277 1.08763e-10 4.25851e-10 1.71352e-11 1.88583e-10 7.44863e-10 2.38172e-11 1.08765e-10 4.25854e-10 1.71218e-11 7.73091 5.47488 0.417314 1.0876e-10 4.25853e-10 1.71335e-11 2.90554 0.965183 0.102902 1.08772e-10 4.25853e-10 1.71328e-11 10.2786 0.731801 0.0259123 1.08757e-10 4.25852e-10 1.7142e-11 2.22167 -0.733487 -0.20892 6.722e-15 -9.94182e-14 -8.53415e-15 -21.7875 2.40449 -0.293595 3.43354 -1.43089 -5.49496 -0.00969409 2.18459 -0.306219 4.97874e-11 2.69037e-10 -4.82632e-10 8.35819e-11 4.67093e-10 -8.36811e-10 4.97827e-11 2.69036e-10 -4.82621e-10 -7.73091 5.47488 -0.417314 4.97869e-11 2.69035e-10 -4.82635e-10 -2.90554 0.965183 -0.102902 4.97864e-11 2.69036e-10 -4.8263e-10 -10.2786 0.731801 -0.0259123 4.97912e-11 2.69037e-10 -4.82639e-10 -2.22167 -0.733487 0.20892 -2.03217e-16 0.0 -3.88251e-19 -2.18822 -11.6743 -0.785458 0.0111246 7.75059 0.0875197 -0.636613 1.9056 -1.9273 2.03217e-16 0.0 3.88251e-19 -3.42599 -10.0911 1.16511 -0.0457345 13.1381 -0.254819 0.508286 -3.59101 -0.318348
-65.7399 82.3807 -24.727 4.1932 48.2601 9.1768 -4.88977 1.99626 0.107676 1.97859 -0.387612 -0.00980517 -4.71538 0.216643 1.07193 -0.202284 13.0067 4.18946 -0.0 0.0 0.0 -0.0 0.0 0.0 4.61401e-14 -2.03075e-13 -2.61775e-14 43.5732 11.5906 0.970991 -9.69724 -4.99095 15.855 -0.0352685 11.3033 1.58635 5.99432e-10 9.22512e-10 3.78786e-11 1.0368e-09 1.61433e-09 5.22968e-11 5.99431e-10 9.22517e-10 3.78679e-11 7.73091 5.47488 0.417314 5.99428e-10 9.22516e-10 3.78752e-11 2.90554 0.965183 0.102902 5.9944e-10 9.22515e-10 3.78746e-11 10.2786 0.731801 0.0259123 5.99425e-10 9.22512e-10 3.78826e-11 2.22167 -0.733487 -0.20892 4.61021e-14 -2.03063e-13 -2.6311e-14 -44.7855 4.9374 -0.605785 6.76448 -2.8985 -11.3119 0.00551099 4.48949 -0.630812 4.68082e-10 5.95615e-10 -1.01307e-09 8.0337e-10 1.03395e-09 -1.75692e-09 4.68076e-10 5.95612e-10 -1.01306e-09 -7.73091 5.47488 -0.417314 4.68081e-10 5.9561e-10 -1.01307e-09 -2.90554 0.965183 -0.102902 4.68081e-10 5.95612e-10 -1.01306e-09 -10.2786 0.731801 -0.0259123 4.68086e-10 5.95615e-10 -1.01307e-09 -2.22167 -0.733487 0.20892 -2.03217e-16 0.0 -3.88251e-19 -3.95553 -21.9701 -1.71117 -0.0303003 18.1498 0.270542 -0.962026 -0.322519 -4.09634 2.03217e-16 0.0 3.88251e-19 -5.03292 -13.5159 2.249 -0.0478088 19.7895 -0.446013 0.468271 -7.38104 -0.592762
-65.6275 82.3908 -24.6087 4.1114 48.3541 9.087 -6.35318 2.91629 0.16843 3.10711 -0.566157 0.020209 -6.88188 0.31921 1.56198 -0.966009 18.9151 6.29218 -0.0 0.0 0.0 -0.0 0.0 0.0 8.00124e-14 -2.98227e-13 -2.52969e-14 63.4105 16.8593 1.42761 -13.2242 -6.95235 23.1994 -0.269672 16.4904 2.36777 9.10082e-10 1.278e-09 5.13482e-11 1.57395e-09 2.23535e-09 7.13418e-11 9.10079e-10 1.278e-09 5.13399e-11 7.73091 5.47488 0.417314 9.10078e-10 1.278e-09 5.13432e-11 2.90554 0.965183 0.102902 9.10091e-10 1.278e-09 5.13428e-11 10.2786 0.731801 0.0259123 9.10074e-10 1.278e-09 5.13497e-11 2.22167 -0.733487 -0.20892 7.99993e-14 -2.9821e-13 -2.54037e-14 -65.2882 7.2127 -0.887029 9.48806 -4.13501 -16.524 0.0413606 6.55303 -0.924028 7.33089e-10 8.07501e-10 -1.44795e-09 1.25879e-09 1.40196e-09 -2.51056e-09 7.33082e-10 8.07499e-10 -1.44795e-09 -7.73091 5.47488 -0.417314 7.33086e-10 8.07494e-10 -1.44795e-09 -2.90554 0.965183 -0.102902 7.33086e-10 8.07498e-10 -1.44795e-09 -10.2786 0.731801 -0.0259123 7.33091e-10 8.07501e-10 -1.44796e-09 -2.22167 -0.733487 0.20892 -2.03217e-16 0.0 -3.88251e-19 -5.85811 -31.1493 -2.68821 -0.130498 27.4082 0.460362 -1.39343 -2.26279 -6.05504 2.03217e-16 0.0 3.88251e-19 -6.35406 -16.546 3.23688 -0.00801441 25.7106 -0.635866 0.39941 -10.7674 -0.851773
-65.5345 82.3951 -24.4678 3.8496 48.4394 8.9113 -7.37634 3.57178 0.17439 3.9143 -0.689791 0.0307996 -8.40235 0.402779 1.89895 -1.78394 23.0099 7.87904 -0.0 0.0 0.0 -0.0 0.0 0.0 1.00192e-13 -3.72134e-13 2.23136e-14 77.2015 20.3808 1.68499 -15.3516 -8.09834 28.3152 -0.525341 20.1501 2.95606 7.70687e-10 1.28054e-09 4.66333e-11 1.33345e-09 2.23526e-09 6.68004e-11 7.70683e-10 1.28055e-09 4.66269e-11 7.73091 5.47488 0.417314 7.70683e-10 1.28055e-09 4.66269e-11 2.90554 0.965183 0.102902 7.70695e-10 1.28055e-09 4.66269e-11 10.2786 0.731801 0.0259123 7.70679e-10 1.28054e-09 4.66333e-11 2.22167 -0.733487 -0.20892 1.00189e-13 -3.72116e-13 2.22142e-14 -79.6047 8.84472 -1.08506 11.2602 -4.94318 -20.1869 0.079421 8.01392 -1.13376 6.14874e-10 7.3266e-10 -1.64398e-09 1.0533e-09 1.2729e-09 -2.84802e-09 6.14866e-10 7.32658e-10 -1.64397e-09 -7.73091 5.47488 -0.417314 6.14871e-10 7.32653e-10 -1.64398e-09 -2.90554 0.965183 -0.102902 6.1487e-10 7.32657e-10 -1.64398e-09 -10.2786 0.731801 -0.0259123 6.14876e-10 7.32661e-10 -1.64398e-09 -2.22167 -0.733487 0.20892 -2.03217e-16 0.0 -3.88251e-19 -7.40258 -37.5612 -3.47452 -0.244025 33.8152 0.617932 -1.76838 -3.50287 -7.47833 2.03217e-16 0.0 3.88251e-19 -7.21735 -18.6063 3.91471 0.0461257 29.8069 -0.784187 0.326296 -13.1454 -1.06049
-65.4119 82.4027 -24.3426 3.8567 48.5627 8.9187 -7.7844 3.86454 0.0994627 4.28085 -0.733064 0.012815 -9.02205 0.45847 2.02256 -2.18734 24.6355 8.53134 -0.0 0.0 0.0 -0.0 0.0 0.0 9.83361e-14 -4.14808e-13 1.51303e-13 82.6206 21.4504 1.6287 -16.0744 -8.45246 30.2218 -0.655341 21.7045 3.21707 -1.33373e-10 6.62927e-10 3.38143e-11 -2.27943e-10 1.14419e-09 6.17637e-11 -1.33373e-10 6.62934e-10 3.38095e-11 7.73091 5.47488 0.417314 -1.33376e-10 6.62933e-10 3.38066e-11 2.90554 0.965183 0.102902 -1.33363e-10 6.62931e-10 3.38075e-11 10.2786 0.731801 0.0259123 -1.33378e-10 6.62928e-10 3.3814e-11 2.22167 -0.733487 -0.20892 9.83176e-14 -4.14792e-13 1.51177e-13 -85.2941 9.55305 -1.16264 11.9382 -5.25258 -21.6513 0.098998 8.66115 -1.22731 -1.38909e-10 1.63976e-10 -1.47065e-09 -2.48501e-10 2.87816e-10 -2.5415e-09 -1.38916e-10 1.63975e-10 -1.47065e-09 -7.73091 5.47488 -0.417314 -1.38911e-10 1.6397e-10 -1.47065e-09 -2.90554 0.965183 -0.102902 -1.38913e-10 1.63974e-10 -1.47065e-09 -10.2786 0.731801 -0.0259123 -1.38906e-10 1.63978e-10 -1.47065e-09 -2.22167 -0.733487 0.20892 -2.03217e-16 0.0 -3.88251e-19 -8.01464 -40.1035 -3.68405 -0.298572 36.1994 0.684148 -1.91332 -3.77608 -8.09865 2.03217e-16 0.0 3.88251e-19 -7.55524 -19.3058 4.1257 0.0728431 31.3431 -0.847551 0.275351 -14.1095 -1.20212
-65.2838 82.4101 -24.2581 4.0041 48.7877 9.0452 -7.75271 3.89783 -0.0330752 4.33218 -0.719101 -0.0255148 -8.99756 0.494338 1.99374 -2.16725 24.5179 8.44849 -0.0 0.0 0.0 -0.0 0.0 0.0 8.08767e-14 -4.35243e-13 3.37661e-13 82.0717 20.7692 1.34139 -15.9076 -8.33688 29.818 -0.654378 21.7565 3.22456 -1.57721e-09 -3.91656e-10 1.43803e-11 -2.72178e-09 -7.1561e-10 5.48245e-11 -1.57721e-09 -3.91653e-10 1.43769e-11 7.73091 5.47488 0.417314 -1.57721e-09 -3.91653e-10 1.43713e-11 2.90554 0.965183 0.102902 -1.5772e-09 -3.91654e-10 1.43734e-11 10.2786 0.731801 0.0259123 -1.57721e-09 -3.91655e-10 1.43807e-11 2.22167 -0.733487 -0.20892 8.08243e-14 -4.35233e-13 3.37484e-13 -84.8266 9.60286 -1.15288 11.8896 -5.236 -21.5395 0.099878 8.72594 -1.23659 -1.34195e-09 -7.53051e-10 -1.03517e-09 -2.32524e-09 -1.30109e-09 -1.77791e-09 -1.34196e-09 -7.53051e-10 -1.03517e-09 -7.73091 5.47488 -0.417314 -1.34195e-09 -7.53054e-10 -1.03517e-09 -2.90554 0.965183 -0.102902 -1.34196e-09 -7.53052e-10 -1.03517e-09 -10.2786 0.731801 -0.0259123 -1.34195e-09 -7.53048e-10 -1.03517e-09 -2.22167 -0.733487 0.20892 -2.03217e-16 0.0 -3.88251e-19 -7.84545 -39.8878 -3.39358 -0.288844 35.7118 0.669514 -1.86252 -3.36383 -8.14423 2.03217e-16 0.0 3.88251e-19 -7.54319 -19.0364 3.99255 0.0673567 31.0512 -0.84218 0.249588 -14.0638 -1.29236
